<mxfile host="app.diagrams.net" modified="2022-03-26T20:42:54.804Z" agent="5.0 (Windows NT 10.0; Win64; x64) AppleWebKit/537.36 (KHTML, like Gecko) Chrome/99.0.4844.82 Safari/537.36" etag="ISJqGKsA_PF9xnKXYcHI" version="16.6.4" type="github" pages="2">
  <diagram id="JBaA2Q__mQytHRCRUmHO" name="Page-1">
    <mxGraphModel dx="782" dy="446" grid="1" gridSize="10" guides="1" tooltips="1" connect="1" arrows="1" fold="1" page="1" pageScale="1" pageWidth="850" pageHeight="1100" math="0" shadow="0">
      <root>
        <mxCell id="0" />
        <mxCell id="1" parent="0" />
        <mxCell id="9B8CpfwMpUXp_qOlYU1r-1" value="override flow" style="whiteSpace=wrap;html=1;aspect=fixed;" parent="1" vertex="1">
          <mxGeometry x="450" y="390" width="80" height="80" as="geometry" />
        </mxCell>
        <mxCell id="9B8CpfwMpUXp_qOlYU1r-18" value="filtered applicant details" style="edgeStyle=orthogonalEdgeStyle;rounded=0;orthogonalLoop=1;jettySize=auto;html=1;exitX=0.5;exitY=1;exitDx=0;exitDy=0;" parent="1" source="9B8CpfwMpUXp_qOlYU1r-2" target="9B8CpfwMpUXp_qOlYU1r-17" edge="1">
          <mxGeometry relative="1" as="geometry" />
        </mxCell>
        <mxCell id="9B8CpfwMpUXp_qOlYU1r-2" value="filter individualPayload applicantDetails(kyc) for document type in request" style="whiteSpace=wrap;html=1;aspect=fixed;" parent="1" vertex="1">
          <mxGeometry x="130" y="390" width="130" height="130" as="geometry" />
        </mxCell>
        <mxCell id="9B8CpfwMpUXp_qOlYU1r-8" style="edgeStyle=orthogonalEdgeStyle;rounded=0;orthogonalLoop=1;jettySize=auto;html=1;" parent="1" source="9B8CpfwMpUXp_qOlYU1r-3" target="9B8CpfwMpUXp_qOlYU1r-6" edge="1">
          <mxGeometry relative="1" as="geometry" />
        </mxCell>
        <mxCell id="9B8CpfwMpUXp_qOlYU1r-3" value="create-applicant" style="text;html=1;align=center;verticalAlign=middle;resizable=0;points=[];autosize=1;strokeColor=none;fillColor=none;" parent="1" vertex="1">
          <mxGeometry x="280" y="40" width="100" height="20" as="geometry" />
        </mxCell>
        <mxCell id="9B8CpfwMpUXp_qOlYU1r-9" style="edgeStyle=orthogonalEdgeStyle;rounded=0;orthogonalLoop=1;jettySize=auto;html=1;exitX=0.5;exitY=1;exitDx=0;exitDy=0;" parent="1" source="9B8CpfwMpUXp_qOlYU1r-6" target="9B8CpfwMpUXp_qOlYU1r-7" edge="1">
          <mxGeometry relative="1" as="geometry" />
        </mxCell>
        <mxCell id="9B8CpfwMpUXp_qOlYU1r-6" value="create applicant request + individual details" style="rounded=1;whiteSpace=wrap;html=1;" parent="1" vertex="1">
          <mxGeometry x="270" y="110" width="120" height="60" as="geometry" />
        </mxCell>
        <mxCell id="9B8CpfwMpUXp_qOlYU1r-11" style="edgeStyle=orthogonalEdgeStyle;rounded=0;orthogonalLoop=1;jettySize=auto;html=1;exitX=0.5;exitY=1;exitDx=0;exitDy=0;" parent="1" source="9B8CpfwMpUXp_qOlYU1r-7" target="9B8CpfwMpUXp_qOlYU1r-10" edge="1">
          <mxGeometry relative="1" as="geometry" />
        </mxCell>
        <mxCell id="9B8CpfwMpUXp_qOlYU1r-7" value="from ODS get individualPayload using individualId" style="rounded=0;whiteSpace=wrap;html=1;" parent="1" vertex="1">
          <mxGeometry x="270" y="200" width="120" height="60" as="geometry" />
        </mxCell>
        <mxCell id="9B8CpfwMpUXp_qOlYU1r-13" value="false" style="edgeStyle=orthogonalEdgeStyle;rounded=0;orthogonalLoop=1;jettySize=auto;html=1;exitX=0;exitY=0.5;exitDx=0;exitDy=0;entryX=0.5;entryY=0;entryDx=0;entryDy=0;" parent="1" source="9B8CpfwMpUXp_qOlYU1r-10" target="9B8CpfwMpUXp_qOlYU1r-2" edge="1">
          <mxGeometry relative="1" as="geometry" />
        </mxCell>
        <mxCell id="9B8CpfwMpUXp_qOlYU1r-14" value="true" style="edgeStyle=orthogonalEdgeStyle;rounded=0;orthogonalLoop=1;jettySize=auto;html=1;" parent="1" source="9B8CpfwMpUXp_qOlYU1r-10" target="9B8CpfwMpUXp_qOlYU1r-1" edge="1">
          <mxGeometry relative="1" as="geometry" />
        </mxCell>
        <mxCell id="9B8CpfwMpUXp_qOlYU1r-10" value="request override" style="rounded=0;whiteSpace=wrap;html=1;" parent="1" vertex="1">
          <mxGeometry x="270" y="300" width="120" height="60" as="geometry" />
        </mxCell>
        <mxCell id="9B8CpfwMpUXp_qOlYU1r-15" value="* application details - kyc" style="text;html=1;strokeColor=none;fillColor=none;align=center;verticalAlign=middle;whiteSpace=wrap;rounded=0;" parent="1" vertex="1">
          <mxGeometry x="630" y="220" width="160" height="30" as="geometry" />
        </mxCell>
        <mxCell id="9B8CpfwMpUXp_qOlYU1r-20" value="" style="edgeStyle=orthogonalEdgeStyle;rounded=0;orthogonalLoop=1;jettySize=auto;html=1;" parent="1" source="9B8CpfwMpUXp_qOlYU1r-17" target="9B8CpfwMpUXp_qOlYU1r-19" edge="1">
          <mxGeometry relative="1" as="geometry" />
        </mxCell>
        <mxCell id="9B8CpfwMpUXp_qOlYU1r-23" value="if this is not empty&lt;br&gt;then return this" style="edgeStyle=orthogonalEdgeStyle;rounded=0;orthogonalLoop=1;jettySize=auto;html=1;exitX=0;exitY=0.5;exitDx=0;exitDy=0;entryX=0;entryY=0.5;entryDx=0;entryDy=0;" parent="1" source="9B8CpfwMpUXp_qOlYU1r-17" target="9B8CpfwMpUXp_qOlYU1r-6" edge="1">
          <mxGeometry relative="1" as="geometry">
            <mxPoint x="60" y="480" as="targetPoint" />
          </mxGeometry>
        </mxCell>
        <mxCell id="9B8CpfwMpUXp_qOlYU1r-17" value="check if these applicantId&amp;nbsp; are under documentDetails (kyc-documents)" style="rounded=0;whiteSpace=wrap;html=1;" parent="1" vertex="1">
          <mxGeometry x="122.5" y="610" width="145" height="70" as="geometry" />
        </mxCell>
        <mxCell id="9B8CpfwMpUXp_qOlYU1r-22" value="remaining applicant details" style="edgeStyle=orthogonalEdgeStyle;rounded=0;orthogonalLoop=1;jettySize=auto;html=1;" parent="1" source="9B8CpfwMpUXp_qOlYU1r-19" target="9B8CpfwMpUXp_qOlYU1r-21" edge="1">
          <mxGeometry relative="1" as="geometry" />
        </mxCell>
        <mxCell id="9B8CpfwMpUXp_qOlYU1r-19" value="remove the applicants which are found in kyc-docs" style="whiteSpace=wrap;html=1;rounded=0;" parent="1" vertex="1">
          <mxGeometry x="135" y="720" width="120" height="60" as="geometry" />
        </mxCell>
        <mxCell id="9B8CpfwMpUXp_qOlYU1r-21" value="if expired then raise a delete event for applicant" style="whiteSpace=wrap;html=1;rounded=0;" parent="1" vertex="1">
          <mxGeometry x="135" y="860" width="120" height="60" as="geometry" />
        </mxCell>
      </root>
    </mxGraphModel>
  </diagram>
  <diagram id="fzIFNI2Qp8Ypq3cmk9M9" name="Page-2">
    <mxGraphModel dx="782" dy="446" grid="1" gridSize="10" guides="1" tooltips="1" connect="1" arrows="1" fold="1" page="1" pageScale="1" pageWidth="850" pageHeight="1100" math="0" shadow="0">
      <root>
        <mxCell id="hvvHDNubGo7F3AOW6P3_-0" />
        <mxCell id="hvvHDNubGo7F3AOW6P3_-1" parent="hvvHDNubGo7F3AOW6P3_-0" />
        <mxCell id="hvvHDNubGo7F3AOW6P3_-6" style="edgeStyle=orthogonalEdgeStyle;curved=1;rounded=0;sketch=1;orthogonalLoop=1;jettySize=auto;html=1;exitX=0.5;exitY=0;exitDx=0;exitDy=0;entryX=0;entryY=0.5;entryDx=0;entryDy=0;shadow=1;" edge="1" parent="hvvHDNubGo7F3AOW6P3_-1" source="hvvHDNubGo7F3AOW6P3_-2" target="hvvHDNubGo7F3AOW6P3_-7">
          <mxGeometry relative="1" as="geometry">
            <mxPoint x="510" y="90" as="targetPoint" />
          </mxGeometry>
        </mxCell>
        <mxCell id="hvvHDNubGo7F3AOW6P3_-10" style="edgeStyle=orthogonalEdgeStyle;curved=1;rounded=0;sketch=1;orthogonalLoop=1;jettySize=auto;html=1;entryX=0;entryY=0.5;entryDx=0;entryDy=0;shadow=1;" edge="1" parent="hvvHDNubGo7F3AOW6P3_-1" source="hvvHDNubGo7F3AOW6P3_-2" target="hvvHDNubGo7F3AOW6P3_-9">
          <mxGeometry relative="1" as="geometry" />
        </mxCell>
        <mxCell id="hvvHDNubGo7F3AOW6P3_-2" value="Relief Express" style="rounded=1;whiteSpace=wrap;html=1;sketch=1;shadow=1;glass=1;fillColor=#dae8fc;strokeColor=#6c8ebf;" vertex="1" parent="hvvHDNubGo7F3AOW6P3_-1">
          <mxGeometry x="230" y="200" width="120" height="60" as="geometry" />
        </mxCell>
        <mxCell id="hvvHDNubGo7F3AOW6P3_-8" style="edgeStyle=orthogonalEdgeStyle;curved=1;rounded=0;sketch=1;orthogonalLoop=1;jettySize=auto;html=1;entryX=0;entryY=0.5;entryDx=0;entryDy=0;shadow=1;" edge="1" parent="hvvHDNubGo7F3AOW6P3_-1" source="hvvHDNubGo7F3AOW6P3_-3" target="hvvHDNubGo7F3AOW6P3_-2">
          <mxGeometry relative="1" as="geometry" />
        </mxCell>
        <mxCell id="hvvHDNubGo7F3AOW6P3_-3" value="User" style="rounded=1;whiteSpace=wrap;html=1;sketch=1;shadow=1;glass=1;fillColor=#f5f5f5;fontColor=#333333;strokeColor=#666666;" vertex="1" parent="hvvHDNubGo7F3AOW6P3_-1">
          <mxGeometry x="50" y="200" width="120" height="60" as="geometry" />
        </mxCell>
        <mxCell id="hvvHDNubGo7F3AOW6P3_-7" value="&lt;span style=&quot;font-size: 11px ; background-color: rgb(255 , 255 , 255)&quot;&gt;Check current&lt;/span&gt;&lt;br style=&quot;font-size: 11px&quot;&gt;&lt;span style=&quot;font-size: 11px ; background-color: rgb(255 , 255 , 255)&quot;&gt;COVID stats&lt;/span&gt;" style="rounded=1;whiteSpace=wrap;html=1;sketch=1;shadow=1;glass=1;fillColor=#d5e8d4;strokeColor=#82b366;" vertex="1" parent="hvvHDNubGo7F3AOW6P3_-1">
          <mxGeometry x="365" y="70" width="120" height="60" as="geometry" />
        </mxCell>
        <mxCell id="hvvHDNubGo7F3AOW6P3_-14" style="edgeStyle=orthogonalEdgeStyle;curved=1;rounded=0;sketch=1;orthogonalLoop=1;jettySize=auto;html=1;exitX=0.5;exitY=0;exitDx=0;exitDy=0;entryX=0;entryY=0.5;entryDx=0;entryDy=0;shadow=1;" edge="1" parent="hvvHDNubGo7F3AOW6P3_-1" source="hvvHDNubGo7F3AOW6P3_-9" target="hvvHDNubGo7F3AOW6P3_-12">
          <mxGeometry relative="1" as="geometry" />
        </mxCell>
        <mxCell id="hvvHDNubGo7F3AOW6P3_-18" style="edgeStyle=orthogonalEdgeStyle;curved=1;rounded=0;sketch=1;orthogonalLoop=1;jettySize=auto;html=1;entryX=0;entryY=0.5;entryDx=0;entryDy=0;exitX=0.5;exitY=1;exitDx=0;exitDy=0;shadow=1;" edge="1" parent="hvvHDNubGo7F3AOW6P3_-1" source="hvvHDNubGo7F3AOW6P3_-9" target="hvvHDNubGo7F3AOW6P3_-15">
          <mxGeometry relative="1" as="geometry">
            <mxPoint x="485" y="380" as="targetPoint" />
          </mxGeometry>
        </mxCell>
        <mxCell id="hvvHDNubGo7F3AOW6P3_-20" style="edgeStyle=orthogonalEdgeStyle;curved=1;rounded=0;sketch=1;orthogonalLoop=1;jettySize=auto;html=1;shadow=1;" edge="1" parent="hvvHDNubGo7F3AOW6P3_-1" source="hvvHDNubGo7F3AOW6P3_-9" target="hvvHDNubGo7F3AOW6P3_-19">
          <mxGeometry relative="1" as="geometry" />
        </mxCell>
        <mxCell id="hvvHDNubGo7F3AOW6P3_-9" value="login/signup" style="rounded=1;whiteSpace=wrap;html=1;sketch=1;shadow=1;glass=1;fillColor=#e1d5e7;strokeColor=#9673a6;" vertex="1" parent="hvvHDNubGo7F3AOW6P3_-1">
          <mxGeometry x="410" y="200" width="120" height="60" as="geometry" />
        </mxCell>
        <mxCell id="hvvHDNubGo7F3AOW6P3_-12" value="Request Donation" style="rounded=1;whiteSpace=wrap;html=1;sketch=1;glass=1;shadow=1;fillColor=#fff2cc;strokeColor=#d6b656;" vertex="1" parent="hvvHDNubGo7F3AOW6P3_-1">
          <mxGeometry x="600" y="70" width="120" height="60" as="geometry" />
        </mxCell>
        <mxCell id="hvvHDNubGo7F3AOW6P3_-15" value="Inform the community about his donation" style="rounded=1;whiteSpace=wrap;html=1;sketch=1;shadow=1;glass=1;fillColor=#ffe6cc;strokeColor=#d79b00;" vertex="1" parent="hvvHDNubGo7F3AOW6P3_-1">
          <mxGeometry x="600" y="340" width="120" height="60" as="geometry" />
        </mxCell>
        <mxCell id="hvvHDNubGo7F3AOW6P3_-19" value="Get contact info of users who are willing to make a donation" style="rounded=1;whiteSpace=wrap;html=1;shadow=1;glass=1;sketch=1;fillColor=#e1d5e7;strokeColor=#9673a6;" vertex="1" parent="hvvHDNubGo7F3AOW6P3_-1">
          <mxGeometry x="600" y="200" width="120" height="60" as="geometry" />
        </mxCell>
      </root>
    </mxGraphModel>
  </diagram>
</mxfile>
